# xmcd
#
# Track frame offsets: 
#        150
#        28260
#        42357
#        51462
#        59670
#        70929
#        83355
#        104547
#        123099
#        132837
#        146700
#        157959
#        191979
#        203229
#        215700
#
# Disc length: 3263 seconds
#
# Revision: 0
# Processed by: cddbd v1.4PL0 Copyright (c) Steve Scherf et al.
# Submitted via: ExactAudioCopy v0.90b4
#
DISCID=e80cbd0f
DTITLE=ELF - Öö hääled Eestimaa Looduses
DYEAR=2002
DGENRE=Country
TTITLE0=Tiksutaja mängulend
TTITLE1=Öö jõeluhal
TTITLE2=Hallhaigrud ja koerad
TTITLE3=Händkaku pojad männikus
TTITLE4=Öö Allirahul
TTITLE5=Öösorr ja esimesed laululinnud
TTITLE6=Öö rabasaarel koos händkakkudega
TTITLE7=Kesköine konnakontsert ja soo-roolinnu soolo
TTITLE8=Öine paadisõit jõel. Kõrkja-roolind ja jõgi-ritsiklind
TTITLE9=Aed-roolind
TTITLE10=Ööbik
TTITLE11=Ritsikakoor Saaremaal
TTITLE12=Õhtu põllul. Lauluritsikad ja rukkirääk
TTITLE13=Isahundi hulgumine
TTITLE14=Händkakud ja hundid
EXTD=
EXTT0=
EXTT1=
EXTT2=
EXTT3=
EXTT4=
EXTT5=
EXTT6=
EXTT7=
EXTT8=
EXTT9=
EXTT10=
EXTT11=
EXTT12=
EXTT13=
EXTT14=
PLAYORDER=
